<svg id="visual" viewBox="0 0 3840 2160" width="3840" height="2160" xmlns="http://www.w3.org/2000/svg" xmlns:xlink="http://www.w3.org/1999/xlink" version="1.1"><path d="M0 1918L91.5 1915.3C183 1912.7 366 1907.3 548.8 1907.8C731.7 1908.3 914.3 1914.7 1097.2 1905.3C1280 1896 1463 1871 1645.8 1859C1828.7 1847 2011.3 1848 2194.2 1857C2377 1866 2560 1883 2742.8 1880.2C2925.7 1877.3 3108.3 1854.7 3291.2 1856.2C3474 1857.7 3657 1883.3 3748.5 1896.2L3840 1909L3840 2161L3748.5 2161C3657 2161 3474 2161 3291.2 2161C3108.3 2161 2925.7 2161 2742.8 2161C2560 2161 2377 2161 2194.2 2161C2011.3 2161 1828.7 2161 1645.8 2161C1463 2161 1280 2161 1097.2 2161C914.3 2161 731.7 2161 548.8 2161C366 2161 183 2161 91.5 2161L0 2161Z" fill="#147193"></path><path d="M0 1843L91.5 1854.2C183 1865.3 366 1887.7 548.8 1906.2C731.7 1924.7 914.3 1939.3 1097.2 1932.5C1280 1925.7 1463 1897.3 1645.8 1890.8C1828.7 1884.3 2011.3 1899.7 2194.2 1902.5C2377 1905.3 2560 1895.7 2742.8 1896.7C2925.7 1897.7 3108.3 1909.3 3291.2 1904.3C3474 1899.3 3657 1877.7 3748.5 1866.8L3840 1856L3840 2161L3748.5 2161C3657 2161 3474 2161 3291.2 2161C3108.3 2161 2925.7 2161 2742.8 2161C2560 2161 2377 2161 2194.2 2161C2011.3 2161 1828.7 2161 1645.8 2161C1463 2161 1280 2161 1097.2 2161C914.3 2161 731.7 2161 548.8 2161C366 2161 183 2161 91.5 2161L0 2161Z" fill="#0d7999"></path><path d="M0 1945L91.5 1954.5C183 1964 366 1983 548.8 1993.2C731.7 2003.3 914.3 2004.7 1097.2 1991C1280 1977.3 1463 1948.7 1645.8 1948.5C1828.7 1948.3 2011.3 1976.7 2194.2 1975.7C2377 1974.7 2560 1944.3 2742.8 1923.3C2925.7 1902.3 3108.3 1890.7 3291.2 1889C3474 1887.3 3657 1895.7 3748.5 1899.8L3840 1904L3840 2161L3748.5 2161C3657 2161 3474 2161 3291.2 2161C3108.3 2161 2925.7 2161 2742.8 2161C2560 2161 2377 2161 2194.2 2161C2011.3 2161 1828.7 2161 1645.8 2161C1463 2161 1280 2161 1097.2 2161C914.3 2161 731.7 2161 548.8 2161C366 2161 183 2161 91.5 2161L0 2161Z" fill="#06809e"></path><path d="M0 2020L91.5 2015C183 2010 366 2000 548.8 1987.8C731.7 1975.7 914.3 1961.3 1097.2 1962.8C1280 1964.3 1463 1981.7 1645.8 1993.3C1828.7 2005 2011.3 2011 2194.2 2002C2377 1993 2560 1969 2742.8 1969C2925.7 1969 3108.3 1993 3291.2 1987.8C3474 1982.7 3657 1948.3 3748.5 1931.2L3840 1914L3840 2161L3748.5 2161C3657 2161 3474 2161 3291.2 2161C3108.3 2161 2925.7 2161 2742.8 2161C2560 2161 2377 2161 2194.2 2161C2011.3 2161 1828.7 2161 1645.8 2161C1463 2161 1280 2161 1097.2 2161C914.3 2161 731.7 2161 548.8 2161C366 2161 183 2161 91.5 2161L0 2161Z" fill="#0188a3"></path><path d="M0 2054L91.5 2050C183 2046 366 2038 548.8 2034.8C731.7 2031.7 914.3 2033.3 1097.2 2037.2C1280 2041 1463 2047 1645.8 2041.8C1828.7 2036.7 2011.3 2020.3 2194.2 2017.3C2377 2014.3 2560 2024.7 2742.8 2019.7C2925.7 2014.7 3108.3 1994.3 3291.2 1993.5C3474 1992.7 3657 2011.3 3748.5 2020.7L3840 2030L3840 2161L3748.5 2161C3657 2161 3474 2161 3291.2 2161C3108.3 2161 2925.7 2161 2742.8 2161C2560 2161 2377 2161 2194.2 2161C2011.3 2161 1828.7 2161 1645.8 2161C1463 2161 1280 2161 1097.2 2161C914.3 2161 731.7 2161 548.8 2161C366 2161 183 2161 91.5 2161L0 2161Z" fill="#0090a7"></path><path d="M0 2023L91.5 2031C183 2039 366 2055 548.8 2066C731.7 2077 914.3 2083 1097.2 2080.2C1280 2077.3 1463 2065.7 1645.8 2064.2C1828.7 2062.7 2011.3 2071.3 2194.2 2071C2377 2070.7 2560 2061.3 2742.8 2058.5C2925.7 2055.7 3108.3 2059.3 3291.2 2059.2C3474 2059 3657 2055 3748.5 2053L3840 2051L3840 2161L3748.5 2161C3657 2161 3474 2161 3291.2 2161C3108.3 2161 2925.7 2161 2742.8 2161C2560 2161 2377 2161 2194.2 2161C2011.3 2161 1828.7 2161 1645.8 2161C1463 2161 1280 2161 1097.2 2161C914.3 2161 731.7 2161 548.8 2161C366 2161 183 2161 91.5 2161L0 2161Z" fill="#0698ab"></path><path d="M0 2074L91.5 2076.7C183 2079.3 366 2084.7 548.8 2086.5C731.7 2088.3 914.3 2086.7 1097.2 2078.7C1280 2070.7 1463 2056.3 1645.8 2048.5C1828.7 2040.7 2011.3 2039.3 2194.2 2048.8C2377 2058.3 2560 2078.7 2742.8 2078.3C2925.7 2078 3108.3 2057 3291.2 2055.8C3474 2054.7 3657 2073.3 3748.5 2082.7L3840 2092L3840 2161L3748.5 2161C3657 2161 3474 2161 3291.2 2161C3108.3 2161 2925.7 2161 2742.8 2161C2560 2161 2377 2161 2194.2 2161C2011.3 2161 1828.7 2161 1645.8 2161C1463 2161 1280 2161 1097.2 2161C914.3 2161 731.7 2161 548.8 2161C366 2161 183 2161 91.5 2161L0 2161Z" fill="#10a0af"></path><path d="M0 2144L91.5 2141.8C183 2139.7 366 2135.3 548.8 2124.3C731.7 2113.3 914.3 2095.7 1097.2 2086.8C1280 2078 1463 2078 1645.8 2082C1828.7 2086 2011.3 2094 2194.2 2096.2C2377 2098.3 2560 2094.7 2742.8 2093.8C2925.7 2093 3108.3 2095 3291.2 2096C3474 2097 3657 2097 3748.5 2097L3840 2097L3840 2161L3748.5 2161C3657 2161 3474 2161 3291.2 2161C3108.3 2161 2925.7 2161 2742.8 2161C2560 2161 2377 2161 2194.2 2161C2011.3 2161 1828.7 2161 1645.8 2161C1463 2161 1280 2161 1097.2 2161C914.3 2161 731.7 2161 548.8 2161C366 2161 183 2161 91.5 2161L0 2161Z" fill="#1ca8b2"></path></svg>