<svg id="visual" viewBox="0 0 1280 1920" width="1280" height="1920" xmlns="http://www.w3.org/2000/svg" xmlns:xlink="http://www.w3.org/1999/xlink" version="1.1"><path d="M0 1172L30.5 1167.2C61 1162.3 122 1152.7 183 1167.5C244 1182.3 305 1221.7 366 1224.2C427 1226.7 488 1192.3 548.8 1173C609.7 1153.7 670.3 1149.3 731.2 1159.5C792 1169.7 853 1194.3 914 1211.2C975 1228 1036 1237 1097 1239.7C1158 1242.3 1219 1238.7 1249.5 1236.8L1280 1235L1280 1921L1249.5 1921C1219 1921 1158 1921 1097 1921C1036 1921 975 1921 914 1921C853 1921 792 1921 731.2 1921C670.3 1921 609.7 1921 548.8 1921C488 1921 427 1921 366 1921C305 1921 244 1921 183 1921C122 1921 61 1921 30.5 1921L0 1921Z" fill="#108489"></path><path d="M0 1474L30.5 1447.2C61 1420.3 122 1366.7 183 1369.2C244 1371.7 305 1430.3 366 1457.3C427 1484.3 488 1479.7 548.8 1459C609.7 1438.3 670.3 1401.7 731.2 1384.3C792 1367 853 1369 914 1381.2C975 1393.3 1036 1415.7 1097 1438.8C1158 1462 1219 1486 1249.5 1498L1280 1510L1280 1921L1249.5 1921C1219 1921 1158 1921 1097 1921C1036 1921 975 1921 914 1921C853 1921 792 1921 731.2 1921C670.3 1921 609.7 1921 548.8 1921C488 1921 427 1921 366 1921C305 1921 244 1921 183 1921C122 1921 61 1921 30.5 1921L0 1921Z" fill="#5fa2a5"></path><path d="M0 1549L30.5 1536.7C61 1524.3 122 1499.7 183 1487.8C244 1476 305 1477 366 1484.5C427 1492 488 1506 548.8 1530.7C609.7 1555.3 670.3 1590.7 731.2 1591.2C792 1591.7 853 1557.3 914 1541C975 1524.7 1036 1526.3 1097 1517.3C1158 1508.3 1219 1488.7 1249.5 1478.8L1280 1469L1280 1921L1249.5 1921C1219 1921 1158 1921 1097 1921C1036 1921 975 1921 914 1921C853 1921 792 1921 731.2 1921C670.3 1921 609.7 1921 548.8 1921C488 1921 427 1921 366 1921C305 1921 244 1921 183 1921C122 1921 61 1921 30.5 1921L0 1921Z" fill="#96c0c2"></path><path d="M0 1653L30.5 1648.7C61 1644.3 122 1635.7 183 1643.2C244 1650.7 305 1674.3 366 1685.7C427 1697 488 1696 548.8 1674.5C609.7 1653 670.3 1611 731.2 1595.7C792 1580.3 853 1591.7 914 1607.8C975 1624 1036 1645 1097 1647.7C1158 1650.3 1219 1634.7 1249.5 1626.8L1280 1619L1280 1921L1249.5 1921C1219 1921 1158 1921 1097 1921C1036 1921 975 1921 914 1921C853 1921 792 1921 731.2 1921C670.3 1921 609.7 1921 548.8 1921C488 1921 427 1921 366 1921C305 1921 244 1921 183 1921C122 1921 61 1921 30.5 1921L0 1921Z" fill="#cadfe0"></path><path d="M0 1814L30.5 1795.8C61 1777.7 122 1741.3 183 1740C244 1738.7 305 1772.3 366 1794.5C427 1816.7 488 1827.3 548.8 1824.5C609.7 1821.7 670.3 1805.3 731.2 1804.5C792 1803.7 853 1818.3 914 1825C975 1831.7 1036 1830.3 1097 1811.3C1158 1792.3 1219 1755.7 1249.5 1737.3L1280 1719L1280 1921L1249.5 1921C1219 1921 1158 1921 1097 1921C1036 1921 975 1921 914 1921C853 1921 792 1921 731.2 1921C670.3 1921 609.7 1921 548.8 1921C488 1921 427 1921 366 1921C305 1921 244 1921 183 1921C122 1921 61 1921 30.5 1921L0 1921Z" fill="#ffffff"></path></svg>